<svg width="1490" height="200" viewBox="0 100 1000 1000" fill="none" xmlns="http://www.w3.org/2000/svg">
<style>.cls-1{font-size:130.08px;fill:#fff;}.cls-2{fill:#20ad7d;}</style>
<title>LN GYM_LOGO</title>
<text class="cls-1" transform="translate(326.87 534.93)">LN GYM</text>
<path class="cls-2" d="M228.83,496.45q0-23.54,0-47.08c0-6.52,2.78-9.34,9.29-9.4,2.19,0,4.38-.05,6.56,0a7.63,7.63,0,0,1,7.64,7,19.2,19.2,0,0,1,.14,2.4q0,47.07,0,94.16c0,6.77-2.81,9.59-9.55,9.6-1.68,0-3.36,0-5,0-6.1,0-9-2.93-9-9q0-19.49,0-39Z"/>
<path class="cls-2" d="M167.7,496.56q0,23.87,0,47.73c0,4.58-1.77,7.83-5.47,8.36a49,49,0,0,1-12.58,0c-3-.36-4.77-2.91-5.35-6a14.94,14.94,0,0,1-.22-2.83q0-47.19,0-94.37c0-6.73,2.84-9.52,9.63-9.56q2.3,0,4.59,0c6.6,0,9.4,2.84,9.41,9.51q0,11.94,0,23.87Z"/>
<path class="cls-2" d="M279.46,497q0,16.65,0,33.29c0,6.28-2.94,9.21-9.26,9.22l-5.7,0c-5.27,0-8.51-3.14-8.53-8.42,0-16.57,0-33.14,0-49.71,0-5.92,0-11.83,0-17.74s2.94-8.88,8.84-9c1.83,0,3.65,0,5.48,0,6.26.07,9.21,3,9.22,9.34,0,9.86,0,19.71,0,29.57V497Z"/>
<path class="cls-2" d="M117,496.77q0-16.42,0-32.84c0-6.32,2.92-9.3,9.19-9.33a58.78,58.78,0,0,1,7.86.28,7.27,7.27,0,0,1,6.39,7c.07.94.08,1.89.08,2.84,0,21.68-.14,43.36.09,65,.07,7-4.28,10.27-9.93,9.79-1.67-.14-3.36,0-5,0-5.52-.07-8.63-3.2-8.64-8.77C117,519.4,117,508.09,117,496.77Z"/>
<path class="cls-2" d="M171.27,507V486.2h53.94V507Z"/>
<path class="cls-2" d="M113.42,486.09v20.67c-5.2,1.46-10.44.3-12.72-2.78-2-2.69-2.27-11.13-.4-14.13C103.52,484.68,108.61,486.19,113.42,486.09Z"/>
<path class="cls-2" d="M283.09,507.17V486.11c4.56.07,9.6-1.48,12.66,3.18,2.83,4.3,2.55,9.43.46,13.83C293.6,508.63,288,506.89,283.09,507.17Z"/>
</svg>
